<svg xmlns="http://www.w3.org/2000/svg" xmlns:xlink="http://www.w3.org/1999/xlink" width="60" height="60" viewBox="0 0 60 60">
  <defs>
    <clipPath id="clip-path">
      <path id="Path_64" data-name="Path 64" d="M62.923,36.6A29.921,29.921,0,0,1,35.515,66.473a13.858,13.858,0,0,1-2.549.158,29.278,29.278,0,0,1-6.5-.687A30.007,30.007,0,1,1,62.923,36.6Z" transform="translate(21.686 90.118)" fill="none" stroke="#fff" stroke-width="1"/>
    </clipPath>
    <linearGradient id="linear-gradient" x1="0.377" y1="-0.335" x2="0.585" y2="1.078" gradientUnits="objectBoundingBox">
      <stop offset="0" stop-color="#f7c593"/>
      <stop offset="0.941" stop-color="#d78636"/>
      <stop offset="1" stop-color="#001042"/>
    </linearGradient>
  </defs>
  <g id="Mask_Group_1" data-name="Mask Group 1" transform="translate(-24.609 -96.749)" clip-path="url(#clip-path)">
    <g id="Group_107" data-name="Group 107" transform="translate(2.957 6.962)">
      <path id="Path_59" data-name="Path 59" d="M62.923,36.6A29.921,29.921,0,0,1,35.515,66.473a13.858,13.858,0,0,1-2.549.158,29.278,29.278,0,0,1-6.5-.687A30.007,30.007,0,1,1,62.923,36.6Z" transform="translate(18.729 83.156)" stroke="#fff" stroke-width="1" fill="url(#linear-gradient)"/>
      <path id="Path_62" data-name="Path 62" d="M223.741,350.649c1.772-3.234,3.883-1.908,5.671-3.494a9.041,9.041,0,0,1-.964,7.869c2.533,5.082.1,10.515-1.6,12.009s-2.771,5.152-1.086,8.743c1.527,1.271,1.424.629,3.912,2.106,1.67.793,3.509,2.323,7.575,7.652-.324.433.757,5.827.335,6.316-6.8,7.691-20.771,9.308-31.221,7.837-4.431-.625-10.013-4.2-12.644-6.079-3.3-8.071-2.156-7.469-3.386-13.721-.456-3.341-2.212-6.006-3.11-7.7-.853-1.888-4.24-5.158-4.24-5.158s-3.733-3.137-2.615-5.523c2.123-3.394,6.079-.961,8.813,1.824a33.654,33.654,0,0,1,4.537,5.881,11.84,11.84,0,0,1,2.293,4.663c2.69-3.425,3.131-1.734,4.977-5.052s3-3.547,4.651-4.536a6.887,6.887,0,0,0,0-4.635s-4.422-4.123-1.4-8.155c.765-3.259,2.618-1.862,6.213-.852C213.928,347.037,218.727,346.7,223.741,350.649Z" transform="translate(-165.235 -243.301)" fill="#fff"/>
      <path id="Path_63" data-name="Path 63" d="M83.776,6.063A4.12,4.12,0,0,1,85.171,7.4a20.953,20.953,0,0,1,1.741,3.335,15.882,15.882,0,0,1,.91,2.327c.81,2.418,1.4,3.483,1.916,3.139.543-.395-.139-4.078-1.036-6.365a38,38,0,0,0-4.756-8.2s-5.589-8.882-2.383-12.667,8.724-.025,9,.142a1.614,1.614,0,0,1,.776,1.454c-.13.674-.364,1.089-1.132,1.183s-1.451-.7-1.827-.876-3.37-1.626-4.641-.165S83.88-3.118,86.157.185s4.747,6.96,5.324,8.724,1.612,6.285,1.09,7.7-.816,1.862-1.318,2.115a3.382,3.382,0,0,1-2.429.364,4.145,4.145,0,0,1-2.418-2.48c-.938-2.529-3.059-6.945-3.059-6.945Z" transform="translate(-13.168 134.803)" fill="#fff"/>
    </g>
  </g>
</svg>
